<svg id="visual" viewBox="0 0 960 540" width="960" height="540" xmlns="http://www.w3.org/2000/svg" xmlns:xlink="http://www.w3.org/1999/xlink" version="1.1"><rect x="0" y="0" width="960" height="540" fill="#d7fad8"></rect><path d="M0 323L22.8 328.5C45.7 334 91.3 345 137 355.8C182.7 366.7 228.3 377.3 274 378.3C319.7 379.3 365.3 370.7 411.2 370.8C457 371 503 380 548.8 381.3C594.7 382.7 640.3 376.3 686 373.8C731.7 371.3 777.3 372.7 823 363.3C868.7 354 914.3 334 937.2 324L960 314L960 541L937.2 541C914.3 541 868.7 541 823 541C777.3 541 731.7 541 686 541C640.3 541 594.7 541 548.8 541C503 541 457 541 411.2 541C365.3 541 319.7 541 274 541C228.3 541 182.7 541 137 541C91.3 541 45.7 541 22.8 541L0 541Z" fill="#69fa75"></path><path d="M0 395L22.8 389.2C45.7 383.3 91.3 371.7 137 364.8C182.7 358 228.3 356 274 365.2C319.7 374.3 365.3 394.7 411.2 395.5C457 396.3 503 377.7 548.8 368.8C594.7 360 640.3 361 686 369.5C731.7 378 777.3 394 823 404.7C868.7 415.3 914.3 420.7 937.2 423.3L960 426L960 541L937.2 541C914.3 541 868.7 541 823 541C777.3 541 731.7 541 686 541C640.3 541 594.7 541 548.8 541C503 541 457 541 411.2 541C365.3 541 319.7 541 274 541C228.3 541 182.7 541 137 541C91.3 541 45.7 541 22.8 541L0 541Z" fill="#5aed67"></path><path d="M0 411L22.8 416.8C45.7 422.7 91.3 434.3 137 432C182.7 429.7 228.3 413.3 274 411.3C319.7 409.3 365.3 421.7 411.2 426.5C457 431.3 503 428.7 548.8 429.3C594.7 430 640.3 434 686 436.3C731.7 438.7 777.3 439.3 823 437.8C868.7 436.3 914.3 432.7 937.2 430.8L960 429L960 541L937.2 541C914.3 541 868.7 541 823 541C777.3 541 731.7 541 686 541C640.3 541 594.7 541 548.8 541C503 541 457 541 411.2 541C365.3 541 319.7 541 274 541C228.3 541 182.7 541 137 541C91.3 541 45.7 541 22.8 541L0 541Z" fill="#4be058"></path><path d="M0 444L22.8 443.7C45.7 443.3 91.3 442.7 137 445.7C182.7 448.7 228.3 455.3 274 455.5C319.7 455.7 365.3 449.3 411.2 450.8C457 452.3 503 461.7 548.8 464.7C594.7 467.7 640.3 464.3 686 465.2C731.7 466 777.3 471 823 470.2C868.7 469.3 914.3 462.7 937.2 459.3L960 456L960 541L937.2 541C914.3 541 868.7 541 823 541C777.3 541 731.7 541 686 541C640.3 541 594.7 541 548.8 541C503 541 457 541 411.2 541C365.3 541 319.7 541 274 541C228.3 541 182.7 541 137 541C91.3 541 45.7 541 22.8 541L0 541Z" fill="#3ad34a"></path><path d="M0 472L22.8 475.7C45.7 479.3 91.3 486.7 137 490.2C182.7 493.7 228.3 493.3 274 494.8C319.7 496.3 365.3 499.7 411.2 496.7C457 493.7 503 484.3 548.8 480.5C594.7 476.7 640.3 478.3 686 482.7C731.7 487 777.3 494 823 496.7C868.7 499.3 914.3 497.7 937.2 496.8L960 496L960 541L937.2 541C914.3 541 868.7 541 823 541C777.3 541 731.7 541 686 541C640.3 541 594.7 541 548.8 541C503 541 457 541 411.2 541C365.3 541 319.7 541 274 541C228.3 541 182.7 541 137 541C91.3 541 45.7 541 22.8 541L0 541Z" fill="#24c73b"></path></svg>